REM DIRINDEX 1\2,1\3,1\4,1\5
REM DIRNAME folder01,folder02,folder03,folder04,folder05
TITLE ""
FILE "P1Q_t_0332-0341.mp3" MP3
  TRACK 01 AUDIO
    TITLE "3:cjc005_1897"
    INDEX 01 00:00:00
  TRACK 02 AUDIO
    TITLE "0:"
    INDEX 01 00:01:07
  TRACK 03 AUDIO
    TITLE "4:cjc005_1898"
    INDEX 01 00:01:28
  TRACK 04 AUDIO
    TITLE "0:"
    INDEX 01 00:02:43
  TRACK 05 AUDIO
    TITLE "5:cjc005_1899"
    INDEX 01 00:02:67
  TRACK 06 AUDIO
    TITLE "0:"
    INDEX 01 00:07:58
  TRACK 07 AUDIO
    TITLE "3:cjc005_1900"
    INDEX 01 00:08:36
  TRACK 08 AUDIO
    TITLE "0:"
    INDEX 01 00:09:71
  TRACK 09 AUDIO
    TITLE "4:cjc005_1901"
    INDEX 01 00:10:19
  TRACK 10 AUDIO
    TITLE "0:"
    INDEX 01 00:11:52
  TRACK 11 AUDIO
    TITLE "5:cjc005_1902"
    INDEX 01 00:11:74
  TRACK 12 AUDIO
    TITLE "0:"
    INDEX 01 00:16:12
  TRACK 13 AUDIO
    TITLE "3:cjc005_1903"
    INDEX 01 00:16:65
  TRACK 14 AUDIO
    TITLE "0:"
    INDEX 01 00:18:11
  TRACK 15 AUDIO
    TITLE "4:cjc005_1904"
    INDEX 01 00:18:31
  TRACK 16 AUDIO
    TITLE "0:"
    INDEX 01 00:19:44
  TRACK 17 AUDIO
    TITLE "5:cjc005_1905"
    INDEX 01 00:19:67
  TRACK 18 AUDIO
    TITLE "0:"
    INDEX 01 00:23:53
  TRACK 19 AUDIO
    TITLE "3:cjc005_1906"
    INDEX 01 00:24:31
  TRACK 20 AUDIO
    TITLE "0:"
    INDEX 01 00:25:37
  TRACK 21 AUDIO
    TITLE "4:cjc005_1907"
    INDEX 01 00:25:72
  TRACK 22 AUDIO
    TITLE "0:"
    INDEX 01 00:26:71
  TRACK 23 AUDIO
    TITLE "5:cjc005_1908"
    INDEX 01 00:27:20
  TRACK 24 AUDIO
    TITLE "0:"
    INDEX 01 00:32:05
  TRACK 25 AUDIO
    TITLE "3:cjc005_1909"
    INDEX 01 00:32:58
  TRACK 26 AUDIO
    TITLE "0:"
    INDEX 01 00:34:36
  TRACK 27 AUDIO
    TITLE "4:cjc005_1910"
    INDEX 01 00:34:49
  TRACK 28 AUDIO
    TITLE "0:"
    INDEX 01 00:35:59
  TRACK 29 AUDIO
    TITLE "5:cjc005_1911"
    INDEX 01 00:36:09
  TRACK 30 AUDIO
    TITLE "0:"
    INDEX 01 00:40:15
  TRACK 31 AUDIO
    TITLE "3:cjc005_1912"
    INDEX 01 00:40:68
  TRACK 32 AUDIO
    TITLE "0:"
    INDEX 01 00:42:06
  TRACK 33 AUDIO
    TITLE "4:cjc005_1913"
    INDEX 01 00:42:29
  TRACK 34 AUDIO
    TITLE "0:"
    INDEX 01 00:43:35
  TRACK 35 AUDIO
    TITLE "5:cjc005_1914"
    INDEX 01 00:43:58
  TRACK 36 AUDIO
    TITLE "0:"
    INDEX 01 00:48:18
  TRACK 37 AUDIO
    TITLE "3:cjc005_1915"
    INDEX 01 00:48:69
  TRACK 38 AUDIO
    TITLE "0:"
    INDEX 01 00:50:15
  TRACK 39 AUDIO
    TITLE "4:cjc005_1916"
    INDEX 01 00:50:39
  TRACK 40 AUDIO
    TITLE "0:"
    INDEX 01 00:51:44
  TRACK 41 AUDIO
    TITLE "5:cjc005_1917"
    INDEX 01 00:51:69
  TRACK 42 AUDIO
    TITLE "0:"
    INDEX 01 00:57:09
  TRACK 43 AUDIO
    TITLE "3:cjc005_1918"
    INDEX 01 00:57:60
  TRACK 44 AUDIO
    TITLE "0:"
    INDEX 01 00:59:02
  TRACK 45 AUDIO
    TITLE "4:cjc005_1919"
    INDEX 01 00:59:22
  TRACK 46 AUDIO
    TITLE "0:"
    INDEX 01 01:00:12
  TRACK 47 AUDIO
    TITLE "5:cjc005_1920"
    INDEX 01 01:00:35
  TRACK 48 AUDIO
    TITLE "0:"
    INDEX 01 01:04:11
  TRACK 49 AUDIO
    TITLE "3:cjc005_1921"
    INDEX 01 01:04:56
  TRACK 50 AUDIO
    TITLE "0:"
    INDEX 01 01:05:58
  TRACK 51 AUDIO
    TITLE "4:cjc005_1922"
    INDEX 01 01:06:04
  TRACK 52 AUDIO
    TITLE "0:"
    INDEX 01 01:07:17
  TRACK 53 AUDIO
    TITLE "5:cjc005_1923"
    INDEX 01 01:07:41
  TRACK 54 AUDIO
    TITLE "0:"
    INDEX 01 01:10:61
  TRACK 55 AUDIO
    TITLE "3:cjc005_1924"
    INDEX 01 01:11:37
  TRACK 56 AUDIO
    TITLE "0:"
    INDEX 01 01:12:44
  TRACK 57 AUDIO
    TITLE "4:cjc005_1925"
    INDEX 01 01:12:66
  TRACK 58 AUDIO
    TITLE "0:"
    INDEX 01 01:13:59
  TRACK 59 AUDIO
    TITLE "5:cjc005_1926"
    INDEX 01 01:14:10
  TRACK 60 AUDIO
    TITLE "0:"
    INDEX 01 01:17:41
